<?xml version="1.0" encoding="utf-8"?>
<!-- Svg Vector Icons : http://www.onlinewebfonts.com/icon -->
<!DOCTYPE svg PUBLIC "-//W3C//DTD SVG 1.1//EN" "http://www.w3.org/Graphics/SVG/1.1/DTD/svg11.dtd">
<svg version="1.1" xmlns="http://www.w3.org/2000/svg" xmlns:xlink="http://www.w3.org/1999/xlink" x="0px" y="0px" viewBox="0 0 256 256" enable-background="new 0 0 256 256" xml:space="preserve">
<metadata> Svg Vector Icons : http://www.onlinewebfonts.com/icon </metadata>
<g><g><g><path fill="#000000" d="M201.7,10.4c-6.8,1.3-12.1,4.2-17.6,9.7c-4.2,4.1-6.6,7.5-9.4,13c-2.3,4.5-3.8,8.7-4.8,13l-0.8,3.3l-25.2,0.1l-25.3,0.1l-3.7,1.2c-7.8,2.7-6,1-54.8,49.8l-45.1,45l-1.9,3.9c-4.5,9.2-4,19.9,1.4,28.2c2.9,4.5,60.5,61.7,64.6,64.1c8.3,4.9,18.3,5.3,27.2,0.9l3.9-1.9l45-45.1c33.8-33.8,45.4-45.7,46.6-47.7c0.8-1.5,2.2-4.5,3-6.7l1.4-4.1l0.1-33.7c0.1-32.5,0.1-33.8-0.8-36.7c-1.3-4.2-3.7-8.1-6.8-11c-2.9-2.6-9.1-6.1-9.8-5.4c-1,1.1-1.6,7.9-1.8,22.1L186.9,88l-1.3,2.4c-1.6,2.8-3.9,5.1-6.8,6.7c-1.7,0.9-2.7,1.1-6.4,1.1s-4.7-0.2-6.4-1.1c-2.9-1.5-5.3-3.9-6.8-6.7c-1.2-2.2-1.3-2.9-1.3-6.8c0-4.8,0.6-6.5,3.3-9.7c1.4-1.7,5-4.2,6-4.2c0.5,0,0.6,1.7,0.6,7.9v7.9l1.3,1.3c1.9,1.8,4.7,1.9,6.5,0l1.3-1.3l0.2-14.8c0.3-15.6,0.7-19.4,3.1-26.5c4.5-13.3,13-22.5,22.6-24.6c10.3-2.2,21.3,4.7,27.7,17.5c10.3,20.7,6.9,49.6-7.6,63.6c-1.6,1.5-3.6,3.2-4.5,3.7l-1.7,0.9v5.2c0,3.5,0.2,5.2,0.5,5.2c1.1,0,6.9-3.4,9.7-5.7c19.3-16,25-51.2,12.2-76.7c-4-8-10.6-15.6-17-19.3C216.1,10.7,208.1,9.2,201.7,10.4z M122.7,114.4c1.8,0.6,4.4,1.8,5.6,2.5l2.2,1.4l1.4-1.3c2.7-2.6,5.6-2.9,7.7-0.6c2.2,2.4,1.9,5.5-0.7,7.9l-1.2,1.1l1.4,2.3c4.4,7.2,4.9,16.6,1.1,22.6c-2.2,3.5-4.7,4.4-7.6,3c-1.4-0.7-2.8-2.8-2.8-4.3c0-0.5,0.6-2,1.4-3.5c2.7-5.1,1.3-10.9-3.9-16.4c-3.4-3.6-6.8-5.3-11.1-5.5c-2.6-0.1-3.5,0-4.8,0.8c-5,3.1-4.2,8.7,2.7,19c5.5,8.2,8.3,15.8,7.6,21c-0.7,5.4-4.3,10.3-9.4,12.8c-2.9,1.4-3.3,1.5-8.1,1.5c-5.6,0-8.4-0.8-12.7-3.4l-2.3-1.4l-1.1,1.2c-2.4,2.5-4.8,3-7.2,1.6c-3-1.8-3.2-5.7-0.5-8.3l1.6-1.5l-1.3-2.1c-2.9-4.7-4.4-11-3.6-15.9c0.9-5.7,4.3-10.5,7.5-10.5c3.7,0,6.4,3.8,4.8,6.9c-0.4,0.8-1.1,2.1-1.5,2.9c-1.2,2.2-0.7,6.9,0.9,10.2c1.7,3.3,5.5,7.2,8.9,8.9c3.8,1.9,8.5,2.2,10.8,0.6c4.8-3.2,4.1-8.3-2.4-18.2c-5.9-8.9-7.9-14.1-7.9-20c0-4.8,1-7.3,4.2-10.7C107.4,113.4,115,111.8,122.7,114.4z"/></g></g></g>
</svg>